<mxfile host="app.diagrams.net" agent="Mozilla/5.0 (Windows NT 10.0; Win64; x64) AppleWebKit/537.36 (KHTML, like Gecko) Chrome/140.0.0.0 Safari/537.36" version="28.1.0" pages="3">
  <diagram name="Navegação em musicas" id="VyiCorrMxRFwQ0veZ5V1">
    <mxGraphModel dx="798" dy="586" grid="1" gridSize="10" guides="1" tooltips="1" connect="1" arrows="1" fold="1" page="1" pageScale="1" pageWidth="827" pageHeight="1169" math="0" shadow="0">
      <root>
        <mxCell id="0" />
        <mxCell id="1" parent="0" />
        <mxCell id="AwC2Z4A7rs3VWDbXk0fA-1" value="Navegação de musicas" style="swimlane;whiteSpace=wrap;html=1;startSize=20;" vertex="1" parent="1">
          <mxGeometry x="40" y="20" width="440" height="380" as="geometry" />
        </mxCell>
        <mxCell id="AwC2Z4A7rs3VWDbXk0fA-2" value="#ARTIST - #TITLE&lt;br&gt;[Imagem]&lt;div&gt;Linguagem: #LANGUAGE&lt;br&gt;BPM: #BPM&lt;br&gt;GAP: #GAP&lt;/div&gt;" style="rounded=1;whiteSpace=wrap;html=1;" vertex="1" parent="AwC2Z4A7rs3VWDbXk0fA-1">
          <mxGeometry x="40" y="140" width="160" height="160" as="geometry" />
        </mxCell>
        <mxCell id="AwC2Z4A7rs3VWDbXk0fA-3" value="Pesquisa por palavra chave" style="rounded=0;whiteSpace=wrap;html=1;" vertex="1" parent="AwC2Z4A7rs3VWDbXk0fA-1">
          <mxGeometry x="40" y="60" width="200" height="40" as="geometry" />
        </mxCell>
        <mxCell id="AwC2Z4A7rs3VWDbXk0fA-5" value="Pesquisar" style="rounded=1;whiteSpace=wrap;html=1;" vertex="1" parent="AwC2Z4A7rs3VWDbXk0fA-1">
          <mxGeometry x="300" y="60" width="100" height="40" as="geometry" />
        </mxCell>
        <mxCell id="AwC2Z4A7rs3VWDbXk0fA-6" value="#ARTIST - #TITLE&lt;br&gt;..." style="rounded=1;whiteSpace=wrap;html=1;" vertex="1" parent="AwC2Z4A7rs3VWDbXk0fA-1">
          <mxGeometry x="240" y="140" width="160" height="160" as="geometry" />
        </mxCell>
      </root>
    </mxGraphModel>
  </diagram>
  <diagram id="aCzt58hgYUtf6CsVtD22" name="Detalhe de música">
    <mxGraphModel dx="798" dy="586" grid="1" gridSize="10" guides="1" tooltips="1" connect="1" arrows="1" fold="1" page="1" pageScale="1" pageWidth="827" pageHeight="1169" math="0" shadow="0">
      <root>
        <mxCell id="0" />
        <mxCell id="1" parent="0" />
        <mxCell id="reLl3PhgyrNSk2fAz-U1-1" value="Detalhe de música" style="swimlane;whiteSpace=wrap;html=1;startSize=20;" vertex="1" parent="1">
          <mxGeometry x="40" y="20" width="360" height="560" as="geometry" />
        </mxCell>
        <mxCell id="XmfHSkBSrvuornpvY9yC-1" value="Vídeo preview with audio" style="shape=parallelogram;perimeter=parallelogramPerimeter;whiteSpace=wrap;html=1;fixedSize=1;" vertex="1" parent="reLl3PhgyrNSk2fAz-U1-1">
          <mxGeometry x="40" y="60" width="160" height="80" as="geometry" />
        </mxCell>
        <mxCell id="XmfHSkBSrvuornpvY9yC-2" value="Toggle áudio" style="rounded=1;whiteSpace=wrap;html=1;" vertex="1" parent="reLl3PhgyrNSk2fAz-U1-1">
          <mxGeometry x="40" y="180" width="40" height="40" as="geometry" />
        </mxCell>
        <mxCell id="XmfHSkBSrvuornpvY9yC-3" value="Musica: #TITLE - #ARTIST" style="shape=parallelogram;perimeter=parallelogramPerimeter;whiteSpace=wrap;html=1;fixedSize=1;" vertex="1" parent="reLl3PhgyrNSk2fAz-U1-1">
          <mxGeometry x="40" y="260" width="160" height="40" as="geometry" />
        </mxCell>
        <mxCell id="XmfHSkBSrvuornpvY9yC-4" value="Genero: #GENRE" style="shape=parallelogram;perimeter=parallelogramPerimeter;whiteSpace=wrap;html=1;fixedSize=1;" vertex="1" parent="reLl3PhgyrNSk2fAz-U1-1">
          <mxGeometry x="40" y="320" width="120" height="40" as="geometry" />
        </mxCell>
        <mxCell id="XmfHSkBSrvuornpvY9yC-5" value="Ano: #YEAR" style="shape=parallelogram;perimeter=parallelogramPerimeter;whiteSpace=wrap;html=1;fixedSize=1;" vertex="1" parent="reLl3PhgyrNSk2fAz-U1-1">
          <mxGeometry x="220" y="260" width="100" height="40" as="geometry" />
        </mxCell>
        <mxCell id="XmfHSkBSrvuornpvY9yC-6" value="Cover preview" style="shape=parallelogram;perimeter=parallelogramPerimeter;whiteSpace=wrap;html=1;fixedSize=1;" vertex="1" parent="reLl3PhgyrNSk2fAz-U1-1">
          <mxGeometry x="240" y="60" width="80" height="80" as="geometry" />
        </mxCell>
        <mxCell id="XmfHSkBSrvuornpvY9yC-7" value="Stop / Play" style="rounded=1;whiteSpace=wrap;html=1;" vertex="1" parent="reLl3PhgyrNSk2fAz-U1-1">
          <mxGeometry x="120" y="180" width="40" height="40" as="geometry" />
        </mxCell>
        <mxCell id="XmfHSkBSrvuornpvY9yC-8" value="... Other actions" style="rounded=1;whiteSpace=wrap;html=1;" vertex="1" parent="reLl3PhgyrNSk2fAz-U1-1">
          <mxGeometry x="200" y="180" width="40" height="40" as="geometry" />
        </mxCell>
        <mxCell id="XmfHSkBSrvuornpvY9yC-9" value="Informações disponíveis sobre a música" style="swimlane;fontStyle=0;childLayout=stackLayout;horizontal=1;startSize=30;horizontalStack=0;resizeParent=1;resizeParentMax=0;resizeLast=0;collapsible=1;marginBottom=0;whiteSpace=wrap;html=1;" vertex="1" parent="reLl3PhgyrNSk2fAz-U1-1">
          <mxGeometry x="40" y="400" width="280" height="120" as="geometry" />
        </mxCell>
        <mxCell id="XmfHSkBSrvuornpvY9yC-10" value="Param 1: #PARAM1" style="text;strokeColor=none;fillColor=none;align=left;verticalAlign=middle;spacingLeft=4;spacingRight=4;overflow=hidden;points=[[0,0.5],[1,0.5]];portConstraint=eastwest;rotatable=0;whiteSpace=wrap;html=1;" vertex="1" parent="XmfHSkBSrvuornpvY9yC-9">
          <mxGeometry y="30" width="280" height="30" as="geometry" />
        </mxCell>
        <mxCell id="XmfHSkBSrvuornpvY9yC-11" value="Param 2: #PARAM2" style="text;strokeColor=none;fillColor=none;align=left;verticalAlign=middle;spacingLeft=4;spacingRight=4;overflow=hidden;points=[[0,0.5],[1,0.5]];portConstraint=eastwest;rotatable=0;whiteSpace=wrap;html=1;" vertex="1" parent="XmfHSkBSrvuornpvY9yC-9">
          <mxGeometry y="60" width="280" height="30" as="geometry" />
        </mxCell>
        <mxCell id="XmfHSkBSrvuornpvY9yC-12" value="Param 3: #PARAM3" style="text;strokeColor=none;fillColor=none;align=left;verticalAlign=middle;spacingLeft=4;spacingRight=4;overflow=hidden;points=[[0,0.5],[1,0.5]];portConstraint=eastwest;rotatable=0;whiteSpace=wrap;html=1;" vertex="1" parent="XmfHSkBSrvuornpvY9yC-9">
          <mxGeometry y="90" width="280" height="30" as="geometry" />
        </mxCell>
        <mxCell id="XmfHSkBSrvuornpvY9yC-13" value="Lingua: #LANGUAGE" style="shape=parallelogram;perimeter=parallelogramPerimeter;whiteSpace=wrap;html=1;fixedSize=1;" vertex="1" parent="reLl3PhgyrNSk2fAz-U1-1">
          <mxGeometry x="180" y="320" width="140" height="40" as="geometry" />
        </mxCell>
        <mxCell id="XmfHSkBSrvuornpvY9yC-15" style="rounded=0;orthogonalLoop=1;jettySize=auto;html=1;dashed=1;" edge="1" parent="1" source="XmfHSkBSrvuornpvY9yC-14" target="XmfHSkBSrvuornpvY9yC-5">
          <mxGeometry relative="1" as="geometry" />
        </mxCell>
        <mxCell id="XmfHSkBSrvuornpvY9yC-16" style="rounded=0;orthogonalLoop=1;jettySize=auto;html=1;dashed=1;" edge="1" parent="1" source="XmfHSkBSrvuornpvY9yC-14" target="XmfHSkBSrvuornpvY9yC-10">
          <mxGeometry relative="1" as="geometry" />
        </mxCell>
        <mxCell id="XmfHSkBSrvuornpvY9yC-17" style="rounded=0;orthogonalLoop=1;jettySize=auto;html=1;dashed=1;" edge="1" parent="1" source="XmfHSkBSrvuornpvY9yC-14" target="XmfHSkBSrvuornpvY9yC-11">
          <mxGeometry relative="1" as="geometry" />
        </mxCell>
        <mxCell id="XmfHSkBSrvuornpvY9yC-18" style="rounded=0;orthogonalLoop=1;jettySize=auto;html=1;dashed=1;" edge="1" parent="1" source="XmfHSkBSrvuornpvY9yC-14" target="XmfHSkBSrvuornpvY9yC-12">
          <mxGeometry relative="1" as="geometry" />
        </mxCell>
        <mxCell id="XmfHSkBSrvuornpvY9yC-19" style="rounded=0;orthogonalLoop=1;jettySize=auto;html=1;dashed=1;" edge="1" parent="1" source="XmfHSkBSrvuornpvY9yC-14" target="XmfHSkBSrvuornpvY9yC-13">
          <mxGeometry relative="1" as="geometry" />
        </mxCell>
        <mxCell id="XmfHSkBSrvuornpvY9yC-20" style="rounded=0;orthogonalLoop=1;jettySize=auto;html=1;dashed=1;" edge="1" parent="1" source="XmfHSkBSrvuornpvY9yC-14" target="XmfHSkBSrvuornpvY9yC-3">
          <mxGeometry relative="1" as="geometry" />
        </mxCell>
        <mxCell id="XmfHSkBSrvuornpvY9yC-21" style="rounded=0;orthogonalLoop=1;jettySize=auto;html=1;dashed=1;" edge="1" parent="1" source="XmfHSkBSrvuornpvY9yC-14" target="XmfHSkBSrvuornpvY9yC-4">
          <mxGeometry relative="1" as="geometry" />
        </mxCell>
        <mxCell id="XmfHSkBSrvuornpvY9yC-14" value="Parâmetros podem ser editados" style="shape=note;whiteSpace=wrap;html=1;backgroundOutline=1;darkOpacity=0.05;" vertex="1" parent="1">
          <mxGeometry x="490" y="350" width="150" height="100" as="geometry" />
        </mxCell>
      </root>
    </mxGraphModel>
  </diagram>
  <diagram id="yDG8a9uSpQB9HfXc7uiP" name="Edição de musica">
    <mxGraphModel dx="798" dy="586" grid="1" gridSize="10" guides="1" tooltips="1" connect="1" arrows="1" fold="1" page="1" pageScale="1" pageWidth="827" pageHeight="1169" math="0" shadow="0">
      <root>
        <mxCell id="0" />
        <mxCell id="1" parent="0" />
      </root>
    </mxGraphModel>
  </diagram>
</mxfile>
